<svg xmlns="http://www.w3.org/2000/svg" viewBox="0 0 64 64" role="img" aria-label="GYM Fitness Club">
  <defs>
    <linearGradient id="gold" x1="10" y1="10" x2="54" y2="54" gradientUnits="userSpaceOnUse">
      <stop offset="0" stop-color="#ffd86b" />
      <stop offset="0.48" stop-color="#f2c335" />
      <stop offset="1" stop-color="#c89112" />
    </linearGradient>
    <linearGradient id="plate" x1="0" y1="0" x2="0" y2="64" gradientUnits="userSpaceOnUse">
      <stop offset="0" stop-color="#181818" />
      <stop offset="1" stop-color="#050505" />
    </linearGradient>
  </defs>
  <rect width="64" height="64" rx="14" fill="#07080b" />
  <path
    fill="url(#plate)"
    d="M32 6 53 17v17c0 11.9-8.2 20.8-21 24C19.2 54.8 11 45.9 11 34V17L32 6Z"
  />
  <path
    fill="none"
    stroke="url(#gold)"
    stroke-width="2.5"
    stroke-linejoin="round"
    d="M32 10.2 49.4 19v14.4c0 9.7-6.6 17-17.4 19.8-10.8-2.8-17.4-10.1-17.4-19.8V19L32 10.2Z"
  />
  <g fill="url(#gold)">
    <rect x="13.5" y="29.8" width="10.5" height="2.4" rx="1.2" />
    <rect x="40" y="29.8" width="10.5" height="2.4" rx="1.2" />
    <rect x="12" y="27.4" width="1.8" height="7.2" rx="0.9" />
    <rect x="15" y="26.4" width="1.8" height="9.2" rx="0.9" />
    <rect x="18" y="27.4" width="1.8" height="7.2" rx="0.9" />
    <rect x="44.2" y="27.4" width="1.8" height="7.2" rx="0.9" />
    <rect x="47.2" y="26.4" width="1.8" height="9.2" rx="0.9" />
    <rect x="50.2" y="27.4" width="1.8" height="7.2" rx="0.9" />
  </g>
  <path
    fill="url(#gold)"
    d="M24.4 22.5c-5.3 0-9.3 3.7-9.3 9.5 0 5.6 3.7 10 9.8 10 3 0 5.4-.8 7.3-2.5v-8.7h-7.8v4.2h2.8v2.1c-.5.4-1.4.7-2.6.7-2.7 0-4.8-2.2-4.8-5.7 0-3.4 2-5.5 4.8-5.5 1.8 0 3.1.7 4.2 1.8l3.1-3.2c-1.7-1.8-4-2.7-7.5-2.7Z"
  />
</svg>
